HIERARCHY
ROOT Hips
{
	OFFSET 51.818699 -9.624673 84.285599
	CHANNELS 6 Xposition Yposition Zposition Xrotation Yrotation Zrotation
	JOINT spine
	{
		OFFSET 0.000000 -0.342408 5.954376
		CHANNELS 3 Xrotation Yrotation Zrotation
		JOINT spine1
		{
			OFFSET 0.000000 -0.000002 8.856018
			CHANNELS 3 Xrotation Yrotation Zrotation
			JOINT spine2
			{
				OFFSET 0.000000 -0.000001 8.485672
				CHANNELS 3 Xrotation Yrotation Zrotation
				JOINT Neck
				{
					OFFSET 0.000000 -1.038704 21.786301
					CHANNELS 3 Xrotation Yrotation Zrotation
					JOINT Head
					{
						OFFSET 0.000000 -0.000001 6.582199
						CHANNELS 3 Xrotation Yrotation Zrotation
						End Site
						{
							OFFSET 0.000000 5.254357 15.932602
						}
					}
				}
				JOINT RightShoulder
				{
					OFFSET -3.573071 0.497523 9.163864
					CHANNELS 3 Xrotation Yrotation Zrotation
					JOINT RightArm
					{
						OFFSET 0.000000 -0.000002 12.019196
						CHANNELS 3 Xrotation Yrotation Zrotation
						JOINT RightArmRoll
						{
							OFFSET 0.000000 -0.000001 6.067551
							CHANNELS 3 Xrotation Yrotation Zrotation
							JOINT RightForeArm
							{
								OFFSET 0.000000 -0.000003 17.672607
								CHANNELS 3 Xrotation Yrotation Zrotation
								JOINT RightForeArmRoll
								{
									OFFSET 0.000000 -0.000001 6.808731
									CHANNELS 3 Xrotation Yrotation Zrotation
									JOINT RightHand
									{
										OFFSET 0.000000 -0.000003 13.663605
										CHANNELS 3 Xrotation Yrotation Zrotation
										End Site
										{
											OFFSET 0.000000 0.000000 0.100006
										}
									}
								}
							}
						}
					}
				}
				JOINT LeftShoulder
				{
					OFFSET 3.573071 0.497523 9.163864
					CHANNELS 3 Xrotation Yrotation Zrotation
					JOINT LeftArm
					{
						OFFSET 0.000000 -0.000002 12.019196
						CHANNELS 3 Xrotation Yrotation Zrotation
						JOINT LeftArmRoll
						{
							OFFSET 0.000000 -0.000001 6.067551
							CHANNELS 3 Xrotation Yrotation Zrotation
							JOINT LeftForeArm
							{
								OFFSET 0.000000 -0.000003 17.672607
								CHANNELS 3 Xrotation Yrotation Zrotation
								JOINT LeftForeArmRoll
								{
									OFFSET 0.000000 -0.000001 6.808716
									CHANNELS 3 Xrotation Yrotation Zrotation
									JOINT LeftHand
									{
										OFFSET 0.000000 -0.000003 13.663605
										CHANNELS 3 Xrotation Yrotation Zrotation
										End Site
										{
											OFFSET 0.000000 0.000000 0.100006
										}
									}
								}
							}
						}
					}
				}
			}
		}
	}
	JOINT RightUpLeg
	{
		OFFSET -5.277740 0.811858 -0.967796
		CHANNELS 3 Xrotation Yrotation Zrotation
		JOINT RightUpLegRoll
		{
			OFFSET 0.000000 -0.000003 16.021400
			CHANNELS 3 Xrotation Yrotation Zrotation
			JOINT RightLeg
			{
				OFFSET 0.000000 0.000003 -19.840103
				CHANNELS 3 Xrotation Yrotation Zrotation
				JOINT RightLegRoll
				{
					OFFSET 0.000000 -0.000003 19.904999
					CHANNELS 3 Xrotation Yrotation Zrotation
					JOINT RightFoot
					{
						OFFSET 0.000000 -0.000003 16.567497
						CHANNELS 3 Xrotation Yrotation Zrotation
						JOINT RightToeBase
						{
							OFFSET 0.000000 -0.000002 13.849602
							CHANNELS 3 Xrotation Yrotation Zrotation
							End Site
							{
								OFFSET 0.005871 0.773116 6.707275
							}
						}
					}
				}
			}
		}
	}
	JOINT LeftUpLeg
	{
		OFFSET 5.277740 0.811858 -0.967796
		CHANNELS 3 Xrotation Yrotation Zrotation
		JOINT LeftUpLegRoll
		{
			OFFSET 0.000000 -0.000003 16.021500
			CHANNELS 3 Xrotation Yrotation Zrotation
			JOINT LeftLeg
			{
				OFFSET 0.000000 -0.000003 19.840004
				CHANNELS 3 Xrotation Yrotation Zrotation
				JOINT LeftLegRoll
				{
					OFFSET 0.000000 -0.000004 20.089005
					CHANNELS 3 Xrotation Yrotation Zrotation
					JOINT LeftFoot
					{
						OFFSET 0.000000 -0.000003 16.383499
						CHANNELS 3 Xrotation Yrotation Zrotation
						JOINT LeftToeBase
						{
							OFFSET 0.000000 -0.000002 13.849594
							CHANNELS 3 Xrotation Yrotation Zrotation
							End Site
							{
								OFFSET -0.026310 0.773116 6.707275
							}
						}
					}
				}
			}
		}
	}
}
MOTION
Frames: 9
Frame Time: 0.041667
50.174305 -5.395626 83.735489 -2.992789 2.370326 16.821093 -0.706433 0.104822 0.075540 2.589797 0.209390 0.151267 4.234879 0.211191 0.148765 16.194520 38.566704 -12.939571 -3.646697 -45.726146 -14.313109 0.139813 -22.230838 6.228149 -93.168124 -143.523270 -98.530267 -0.000000 0.000003 -0.000001 84.257275 2.008171 -4.558566 -0.000005 0.000019 -2.999839 -5.000143 -7.999946 0.000006 -42.988391 78.118144 47.923216 -57.922285 145.507113 98.004977 -0.000000 -0.000003 -0.000000 98.806432 -1.460660 4.708486 0.000001 -0.000006 3.000000 -5.000174 7.999928 0.000001 -3.796633 173.709729 -1.487043 -179.999991 0.000005 -1.031995 168.154025 -0.557863 -0.546007 -0.000003 0.000004 0.151402 69.268322 6.869483 2.175911 25.456960 -7.355613 0.000009 -12.663402 176.795717 1.260641 -0.000003 -0.000004 -1.035699 -21.197425 -0.576393 0.696957 0.000003 -0.000004 -0.349025 70.113476 -6.837622 -2.195257 25.456959 7.355610 0.000000 
50.156200 -5.364293 83.740395 -2.986209 2.404355 16.901192 -0.681780 0.093569 0.080374 2.639104 0.186898 0.160820 4.284193 0.188815 0.158594 16.000517 39.010752 -12.939543 -3.420856 -45.958335 -14.316858 0.293590 -21.621742 6.591597 -93.504573 -144.468760 -98.463003 -0.000001 0.000003 -0.000002 81.476896 2.101462 -4.510239 -0.000002 0.000018 -2.999739 -5.000146 -7.999947 0.000006 -44.974941 78.282656 50.004672 -58.006433 145.536114 98.107867 -0.000002 -0.000002 -0.000001 99.123489 -1.447890 4.709526 0.000003 -0.000006 3.000000 -5.000174 7.999927 0.000001 -3.864505 173.674307 -1.505158 -179.999991 0.000005 -1.030004 168.140515 -0.560763 -0.546752 -0.000003 0.000004 0.151416 69.256288 6.869517 2.175763 25.456960 -7.355618 0.000010 -12.759499 176.753029 1.242703 -0.000003 -0.000005 -1.034910 -21.246483 -0.564442 0.700730 0.000004 -0.000004 -0.350213 70.121809 -6.837800 -2.194877 25.456959 7.355614 0.000001 
50.139404 -5.300510 83.740089 -2.987143 2.437168 16.973242 -0.655507 0.083188 0.085187 2.691672 0.166157 0.170351 4.336749 0.168190 0.168384 15.801412 39.427574 -12.930334 -3.196376 -46.156424 -14.313594 0.447771 -21.044212 6.954754 -93.847721 -145.481636 -98.402583 -0.000001 0.000003 -0.000002 78.555133 2.198234 -4.459591 -0.000002 0.000016 -2.999619 -5.000146 -7.999945 0.000007 -46.945581 78.423201 52.066385 -58.098115 145.567068 98.211427 -0.000000 -0.000003 -0.000001 99.439290 -1.435233 4.708494 -0.000000 -0.000005 3.000000 -5.000170 7.999926 0.000001 -3.922919 173.637807 -1.524227 -179.999991 0.000005 -1.029005 168.129314 -0.562705 -0.547276 -0.000003 0.000004 0.151358 69.242880 6.869514 2.175694 25.456960 -7.355615 0.000010 -12.844855 176.706338 1.221188 -0.000005 -0.000005 -1.034270 -21.294033 -0.550376 0.704777 0.000004 -0.000004 -0.351403 70.131194 -6.837936 -2.194422 25.456957 7.355610 -0.000001 
50.120602 -5.258064 83.739799 -2.994148 2.468520 17.038376 -0.627979 0.073632 0.089960 2.746730 0.147074 0.179814 4.391815 0.149221 0.178080 15.597137 39.819347 -12.912429 -2.972801 -46.324259 -14.303947 0.600568 -20.493668 7.315073 -94.194101 -146.551462 -98.349157 -0.000001 0.000004 -0.000002 75.515336 2.298212 -4.406465 -0.000005 0.000017 -2.999500 -5.000141 -7.999946 0.000007 -48.890624 78.540577 54.098998 -58.196121 145.599156 98.316154 0.000001 -0.000002 0.000001 99.753198 -1.422603 4.709383 0.000001 -0.000005 3.000000 -5.000173 7.999924 0.000000 -3.973460 173.599284 -1.543661 -179.999991 0.000005 -1.026996 168.119806 -0.563661 -0.548571 -0.000002 0.000003 0.151248 69.228421 6.869557 2.175600 25.456957 -7.355615 0.000010 -12.920733 176.657625 1.196756 -0.000003 -0.000004 -1.033739 -21.339773 -0.534539 0.709050 0.000004 -0.000004 -0.352573 70.141207 -6.838084 -2.194133 25.456957 7.355613 0.000001 
50.089504 -5.223356 83.742393 -3.005796 2.498153 17.098040 -0.599573 0.064850 0.094673 2.803558 0.129552 0.189163 4.448642 0.131813 0.187651 15.388071 40.188413 -12.886605 -2.749656 -46.465633 -14.288537 0.750201 -19.965722 7.670001 -94.540166 -147.667734 -98.302753 -0.000002 0.000004 -0.000001 72.381209 2.401016 -4.350836 -0.000004 0.000017 -2.999379 -5.000139 -7.999946 0.000007 -50.800898 78.635777 56.093646 -58.299059 145.632310 98.422165 -0.000001 -0.000003 0.000000 100.064437 -1.409950 4.709155 0.000000 -0.000006 3.000001 -5.000172 7.999927 0.000000 -4.017664 173.561732 -1.563165 -179.999991 0.000006 -1.025998 168.111419 -0.563644 -0.549652 -0.000003 0.000004 0.151111 69.213333 6.869601 2.175546 25.456959 -7.355616 0.000011 -12.988729 176.607860 1.170301 -0.000004 -0.000005 -1.033309 -21.383316 -0.517280 0.713477 0.000003 -0.000004 -0.353705 70.151644 -6.838210 -2.193814 25.456959 7.355616 0.000001 
50.097301 -5.160084 83.740494 -3.020617 2.525860 17.153347 -0.570660 0.056800 0.099302 2.861406 0.113496 0.198356 4.506479 0.115869 0.197043 15.174379 40.537166 -12.853442 -2.526425 -46.584182 -14.267637 0.894902 -19.455907 8.017001 -94.882427 -148.819864 -98.263418 -0.000001 0.000003 -0.000001 69.176019 2.506205 -4.292372 -0.000002 0.000016 -2.999279 -5.000145 -7.999946 0.000007 -52.667660 78.709816 58.041916 -58.404189 145.667390 98.527118 -0.000000 -0.000003 -0.000001 100.372389 -1.397600 4.708850 -0.000002 -0.000006 3.000000 -5.000171 7.999928 0.000001 -4.057116 173.525136 -1.582222 -179.999991 0.000005 -1.025003 168.103605 -0.563627 -0.549730 -0.000003 0.000003 0.150959 69.198231 6.869600 2.175480 25.456962 -7.355617 0.000010 -13.050031 176.558013 1.142695 -0.000003 -0.000004 -1.032930 -21.424357 -0.498946 0.717997 0.000003 -0.000004 -0.354778 70.162087 -6.838364 -2.193496 25.456955 7.355613 0.000000 
50.067497 -5.135154 83.745590 -3.037171 2.551385 17.205629 -0.541606 0.049428 0.103826 2.919515 0.098811 0.207352 4.564597 0.101292 0.206219 14.956186 40.867904 -12.813499 -2.302475 -46.683698 -14.241672 1.032908 -18.959939 8.353566 -95.217270 -149.997470 -98.231132 -0.000001 0.000003 -0.000001 65.923292 2.613121 -4.230664 -0.000004 0.000017 -2.999210 -5.000142 -7.999947 0.000007 -54.482032 78.763665 59.935251 -58.511157 145.703207 98.632795 -0.000002 -0.000001 -0.000000 100.676442 -1.385323 4.709447 -0.000002 -0.000006 2.999999 -5.000173 7.999929 0.000001 -4.093377 173.490521 -1.600390 -179.999991 0.000005 -1.024002 168.096010 -0.562636 -0.550608 -0.000002 0.000004 0.150819 69.183451 6.869613 2.175399 25.456962 -7.355615 0.000011 -13.106110 176.510106 1.114599 -0.000003 -0.000005 -1.032603 -21.462491 -0.479883 0.722538 0.000003 -0.000004 -0.355774 70.172414 -6.838476 -2.193180 25.456957 7.355610 -0.000000 
50.054401 -5.077173 83.741890 -3.054025 2.574533 17.256118 -0.512792 0.042691 0.108212 2.977154 0.085399 0.216097 4.622235 0.087985 0.215128 14.733543 41.183049 -12.767214 -2.077160 -46.767904 -14.210811 1.162458 -18.473454 8.677174 -95.541014 -151.189885 -98.205498 -0.000000 0.000003 -0.000001 62.646598 2.720896 -4.165212 -0.000003 0.000017 -2.999159 -5.000141 -7.999946 0.000007 -56.236038 78.798417 61.766015 -58.617250 145.740582 98.736982 -0.000001 -0.000003 -0.000001 100.975775 -1.373202 4.709938 0.000002 -0.000005 3.000000 -5.000173 7.999927 0.000001 -4.128008 173.457872 -1.617135 -179.999991 0.000005 -1.022992 168.087814 -0.562619 -0.551687 -0.000002 0.000004 0.150704 69.169510 6.869627 2.175266 25.456957 -7.355617 0.000010 -13.158273 176.464071 1.087112 -0.000003 -0.000005 -1.032278 -21.497530 -0.460434 0.727038 0.000003 -0.000004 -0.356672 70.182106 -6.838609 -2.193007 25.456959 7.355613 0.000001 
50.036396 -5.044053 83.743385 -3.069712 2.595076 17.306224 -0.484585 0.036539 0.112440 3.033583 0.073163 0.224544 4.678654 0.075851 0.223723 14.506987 41.484947 -12.715364 -1.849771 -46.840683 -14.175264 1.281823 -17.992187 8.985344 -95.850101 -152.386424 -98.186285 -0.000000 0.000003 -0.000001 59.369384 2.828468 -4.095510 -0.000005 0.000017 -2.999150 -5.000144 -7.999945 0.000007 -57.923091 78.815233 63.527917 -58.721582 145.778858 98.840740 -0.000002 -0.000003 -0.000001 101.269719 -1.361512 4.709336 -0.000001 -0.000006 3.000000 -5.000171 7.999928 0.000001 -4.162582 173.429240 -1.632072 -179.999991 0.000005 -1.021996 168.078606 -0.562600 -0.551779 -0.000003 0.000004 0.150640 69.156847 6.869633 2.175255 25.456962 -7.355614 0.000010 -13.208083 176.421956 1.060913 -0.000004 -0.000005 -1.031941 -21.528970 -0.440948 0.731429 0.000003 -0.000004 -0.357455 70.191163 -6.838721 -2.192768 25.456957 7.355613 0.000000 
